<svg version="1.1" id="Layer_1" xmlns="http://www.w3.org/2000/svg" xmlns:xlink="http://www.w3.org/1999/xlink" x="0px" y="0px"
	 width="100%" viewBox="0 0 400 400" enable-background="new 0 0 400 400" xml:space="preserve">
<path fill="#000000" opacity="1.000000" stroke="none" 
	d="
M184.000000,401.000000 
	C122.685677,401.000000 61.871349,401.000000 1.028511,401.000000 
	C1.028511,267.727325 1.028511,134.454666 1.028511,1.091000 
	C134.230957,1.091000 267.461975,1.091000 400.846497,1.091000 
	C400.846497,134.333191 400.846497,267.666565 400.846497,401.000000 
	C328.788086,401.000000 256.644043,401.000000 184.000000,401.000000 
M258.914246,250.758316 
	C269.856781,250.758316 280.799316,250.758316 291.700989,250.758316 
	C291.700989,215.221878 291.700989,180.333176 291.700989,145.037003 
	C279.873718,145.037003 268.401703,145.037003 257.017609,144.098663 
	C256.953827,133.068497 256.890045,122.038338 256.924194,110.472954 
	C256.615265,110.394913 256.306366,110.316879 255.071671,110.085876 
	C209.383804,110.125458 163.695953,110.165047 117.447426,110.068954 
	C117.347313,110.380692 117.247200,110.692429 116.972237,111.926506 
	C116.972237,169.792831 116.972237,227.659164 116.972237,285.584290 
	C163.918488,285.584290 210.281464,285.584290 257.195465,285.584290 
	C257.195465,274.219788 257.195465,263.104645 257.574982,251.752762 
	C257.806549,251.544983 257.948181,251.287689 258.914246,250.758316 
z"/>
<path fill="#FFFFFF" opacity="1.000000" stroke="none" 
	d="
M118.008087,110.204628 
	C163.695953,110.165047 209.383804,110.125458 255.609772,110.348083 
	C256.321838,110.831810 256.547943,110.964439 256.826233,111.008179 
	C256.890045,122.038338 256.953827,133.068497 257.009430,144.539886 
	C257.001251,144.981110 257.066467,144.918015 256.606079,145.033875 
	C221.549988,145.149750 186.954269,145.149750 151.993042,145.149750 
	C151.993042,180.437714 151.993042,215.214905 151.740143,250.061737 
	C151.714752,250.287704 151.942261,250.444046 152.624802,250.650620 
	C185.938171,250.709839 218.796509,250.713089 251.654816,250.743210 
	C253.461273,250.744873 255.267532,250.969879 257.038269,251.056458 
	C257.002686,251.022003 256.927155,250.957840 256.966705,251.222916 
	C257.069336,251.655151 257.132385,251.822327 257.195465,251.989487 
	C257.195465,263.104645 257.195465,274.219788 257.195465,285.584290 
	C210.281464,285.584290 163.918488,285.584290 116.972237,285.584290 
	C116.972237,227.659164 116.972237,169.792831 117.252289,111.392624 
	C117.773987,110.701126 117.932564,110.483086 118.008087,110.204628 
z"/>
<path fill="#FFFFFF" opacity="1.000000" stroke="none" 
	d="
M256.965485,145.009064 
	C268.401703,145.037003 279.873718,145.037003 291.700989,145.037003 
	C291.700989,180.333176 291.700989,215.221878 291.700989,250.758316 
	C280.799316,250.758316 269.856781,250.758316 258.191284,250.751984 
	C257.287903,250.816376 257.107513,250.887115 256.927155,250.957840 
	C256.927155,250.957840 257.002686,251.022003 256.997803,250.770935 
	C256.918823,250.342468 256.844727,250.165070 256.893982,249.751694 
	C256.963409,249.346619 256.909515,249.177490 256.934631,248.545074 
	C257.031250,213.693863 257.048859,179.305939 257.066467,144.918015 
	C257.066467,144.918015 257.001251,144.981110 256.965485,145.009064 
z"/>
<path fill="#E7E7E7" opacity="1.000000" stroke="none" 
	d="
M117.727753,110.136795 
	C117.932564,110.483086 117.773987,110.701126 117.339722,110.931458 
	C117.247200,110.692429 117.347313,110.380692 117.727753,110.136795 
z"/>
<path fill="#E7E7E7" opacity="1.000000" stroke="none" 
	d="
M256.875214,110.740570 
	C256.547943,110.964439 256.321838,110.831810 256.072662,110.424561 
	C256.306366,110.316879 256.615265,110.394913 256.875214,110.740570 
z"/>
<path fill="#0C0C0C" opacity="1.000000" stroke="none" 
	d="
M256.966705,251.222916 
	C257.107513,250.887115 257.287903,250.816376 257.734100,250.863281 
	C257.948181,251.287689 257.806549,251.544983 257.385223,251.871124 
	C257.132385,251.822327 257.069336,251.655151 256.966705,251.222916 
z"/>
<path fill="#000000" opacity="1.000000" stroke="none" 
	d="
M256.770660,249.987656 
	C256.844727,250.165070 256.918823,250.342468 257.033386,250.805389 
	C255.267532,250.969879 253.461273,250.744873 251.654816,250.743210 
	C218.796509,250.713089 185.938171,250.709839 152.696045,250.465012 
	C152.312256,250.229172 151.993042,249.992096 151.993042,249.992096 
	C151.993042,215.214905 151.993042,180.437714 151.993042,145.149750 
	C186.954269,145.149750 221.549988,145.149750 256.606079,145.033875 
	C257.048859,179.305939 257.031250,213.693863 256.783020,248.629593 
	C256.492859,249.275543 256.359528,249.412003 256.387024,249.464905 
	C256.485474,249.654434 256.638336,249.815704 256.770660,249.987656 
z"/>
<path fill="#5B5B5B" opacity="1.000000" stroke="none" 
	d="
M151.740143,250.061737 
	C151.993042,249.992096 152.312256,250.229172 152.240997,250.414780 
	C151.942261,250.444046 151.714752,250.287704 151.740143,250.061737 
z"/>
<path fill="#0C0C0C" opacity="1.000000" stroke="none" 
	d="
M256.893982,249.751694 
	C256.638336,249.815704 256.485474,249.654434 256.387024,249.464905 
	C256.359528,249.412003 256.492859,249.275543 256.704010,249.092880 
	C256.909515,249.177490 256.963409,249.346619 256.893982,249.751694 
z"/>
</svg>
