<?xml version="1.0" encoding="utf-8"?>
<!-- Generator: Adobe Illustrator 28.2.0, SVG Export Plug-In . SVG Version: 6.00 Build 0)  -->
<svg version="1.1" id="Layer_1" xmlns="http://www.w3.org/2000/svg" xmlns:xlink="http://www.w3.org/1999/xlink" x="0px" y="0px"
	 viewBox="0 0 340.2 400" style="enable-background:new 0 0 340.2 400;" xml:space="preserve">
<style type="text/css">
	.st0{fill:#FFFFFF;}
	.st1{fill:#E7E7E7;}
	.st2{fill:#0C0C0C;}
	.st3{fill:#5B5B5B;}
</style>
<path class="st0" d="M100.4,123.6c38.9,0,77.7-0.1,117,0.1c0.6,0.4,0.8,0.5,1,0.6c0.1,9.4,0.1,18.8,0.2,28.5c0,0.4,0,0.3-0.3,0.4
	c-29.8,0.1-59.2,0.1-89,0.1c0,30,0,59.6-0.2,89.2c0,0.2,0.2,0.3,0.8,0.5c28.3,0.1,56.3,0.1,84.2,0.1c1.5,0,3.1,0.2,4.6,0.3
	c0,0-0.1-0.1-0.1,0.1c0.1,0.4,0.1,0.5,0.2,0.7c0,9.5,0,18.9,0,28.6c-39.9,0-79.3,0-119.2,0c0-49.3,0-98.5,0.2-148.1
	C100.2,124.1,100.3,123.9,100.4,123.6z"/>
<path class="st0" d="M218.5,153.2c9.7,0,19.5,0,29.5,0c0,30,0,59.7,0,89.9c-9.3,0-18.6,0-28.5,0c-0.8,0.1-0.9,0.1-1.1,0.2
	c0,0,0.1,0.1,0.1-0.2c-0.1-0.4-0.1-0.5-0.1-0.9c0.1-0.3,0-0.5,0-1C218.6,211.6,218.6,182.4,218.5,153.2
	C218.6,153.2,218.6,153.2,218.5,153.2z"/>
<path class="st1" d="M100.1,123.6c0.2,0.3,0,0.5-0.3,0.7C99.7,124.1,99.8,123.8,100.1,123.6z"/>
<path class="st1" d="M218.4,124.1c-0.3,0.2-0.5,0.1-0.7-0.3C218,123.7,218.2,123.8,218.4,124.1z"/>
<path class="st2" d="M218.5,243.6c0.1-0.3,0.3-0.3,0.7-0.3c0.2,0.4,0.1,0.6-0.3,0.9C218.7,244.1,218.6,243.9,218.5,243.6z"/>
<path d="M218.4,242.5c0.1,0.2,0.1,0.3,0.2,0.7c-1.5,0.1-3-0.1-4.6-0.1c-27.9,0-55.9,0-84.2-0.2c-0.3-0.2-0.6-0.4-0.6-0.4
	c0-29.6,0-59.1,0-89.2c29.7,0,59.2,0,89-0.1c0.4,29.1,0.4,58.4,0.2,88.1c-0.2,0.5-0.4,0.7-0.3,0.7
	C218.1,242.2,218.2,242.4,218.4,242.5z"/>
<path class="st3" d="M129,242.6c0.2-0.1,0.5,0.1,0.4,0.3C129.2,242.9,129,242.8,129,242.6z"/>
<path class="st2" d="M218.5,242.3c-0.2,0.1-0.3-0.1-0.4-0.2c0,0,0.1-0.2,0.3-0.3C218.5,241.8,218.5,242,218.5,242.3z"/>
</svg>
